<?xml version="1.0" encoding="UTF-8" standalone="no"?>
<!-- Created with Inkscape (http://www.inkscape.org/) -->

<svg
   xmlns:dc="http://purl.org/dc/elements/1.1/"
   xmlns:cc="http://creativecommons.org/ns#"
   xmlns:rdf="http://www.w3.org/1999/02/22-rdf-syntax-ns#"
   xmlns:svg="http://www.w3.org/2000/svg"
   xmlns="http://www.w3.org/2000/svg"
   xmlns:sodipodi="http://sodipodi.sourceforge.net/DTD/sodipodi-0.dtd"
   xmlns:inkscape="http://www.inkscape.org/namespaces/inkscape"
   width="475.96875"
   height="184.25108"
   id="svg2"
   version="1.1"
   inkscape:version="0.48.2 r9819"
   sodipodi:docname="New document 1">
  <sodipodi:namedview
     id="base"
     pagecolor="#ffffff"
     bordercolor="#666666"
     borderopacity="1.0"
     inkscape:pageopacity="0.0"
     inkscape:pageshadow="2"
     inkscape:zoom="9.0804594"
     inkscape:cx="445.86474"
     inkscape:cy="62.242067"
     inkscape:document-units="px"
     inkscape:current-layer="layer1"
     showgrid="false"
     inkscape:window-width="1024"
     inkscape:window-height="712"
     inkscape:window-x="-4"
     inkscape:window-y="-4"
     inkscape:window-maximized="1"
     showguides="true"
     inkscape:guide-bbox="true"
     fit-margin-top="0"
     fit-margin-left="0"
     fit-margin-right="0"
     fit-margin-bottom="0" />
  <defs
     id="defs4">
    <clipPath
       clipPathUnits="userSpaceOnUse"
       id="clipPath4018">
      <path
         inkscape:connector-curvature="0"
         id="path4020"
         d="m -194.71198,383.62117 23.45928,-23.45927 36.36187,10.55667 114.950447,-9.38371 170.079743,-39.88077 204.09569,-59.82115 100.87488,16.4215 178.29048,45.74558 148.9664,121.98823 -97.35599,73.89671 c 0,0 -1.17297,42.2267 -1.17297,68.0319 0,25.8052 0,42.22669 0,42.22669 l -107.91266,11.72964 c 0,0 -151.31232,2.34593 -158.3501,1.17297 -7.03779,-1.17297 -55.1293,-22.28632 -55.1293,-22.28632 l -97.35599,8.21075 -73.89671,-2.34593 -156.004178,-91.49117 -90.318207,-51.6104 -41.053731,-2.34593 -80.934494,34.01595 -18.76742,-17.59446 -10.55668,-70.37782 z"
         style="opacity:0.95067264;fill:#ececec;stroke:#000000;stroke-width:1;stroke-miterlimit:4;stroke-opacity:1;stroke-dasharray:none;stroke-dashoffset:2" />
    </clipPath>
    <clipPath
       clipPathUnits="userSpaceOnUse"
       id="clipPath4430">
      <path
         inkscape:connector-curvature="0"
         id="path4432"
         d="m 201.2998,469.94983 19.22526,-65.59207 68.98477,-20.35616 c 0,0 55.41399,31.66514 56.54489,37.31963 1.13089,5.65449 7.91628,97.25721 7.91628,97.25721 l -54.28309,39.58142 -78.03195,-27.14155 z"
         style="opacity:0.95067264;fill:none;stroke:#000000;stroke-width:1;stroke-miterlimit:4;stroke-opacity:1;stroke-dasharray:none;stroke-dashoffset:2" />
    </clipPath>
  </defs>
  <metadata
     id="metadata7">
    <rdf:RDF>
      <cc:Work
         rdf:about="">
        <dc:format>image/svg+xml</dc:format>
        <dc:type
           rdf:resource="http://purl.org/dc/dcmitype/StillImage" />
        <dc:title></dc:title>
      </cc:Work>
    </rdf:RDF>
  </metadata>
  <g
     inkscape:label="Layer 1"
     inkscape:groupmode="layer"
     id="layer1"
     transform="translate(443.96875,-195.5)">
    <path
       style="fill:none;stroke:#000000;stroke-width:0.35413387;stroke-miterlimit:4;stroke-opacity:1;stroke-dasharray:none;stroke-dashoffset:2"
       d="m -352.80161,262.41642 -87.94051,-66.06698 86.15492,71.42376 z"
       id="path3820"
       inkscape:connector-curvature="0" />
    <path
       style="fill:none;stroke:#000000;stroke-width:0.35413387;stroke-miterlimit:4;stroke-opacity:1;stroke-dasharray:none;stroke-dashoffset:2"
       d="m -355.9264,277.59397 c -5.35678,-1.78559 -45.47718,-9.59145 -45.47718,-9.59145 l 46.36998,14.05544 z"
       id="path3822"
       inkscape:connector-curvature="0"
       sodipodi:nodetypes="cccc" />
    <path
       style="fill:none;stroke:#000000;stroke-width:0.35413387;stroke-miterlimit:4;stroke-opacity:1;stroke-dasharray:none;stroke-dashoffset:2"
       d="m -399.67345,288.75394 43.30066,-3.57119 0,5.35678 z"
       id="path3828"
       inkscape:connector-curvature="0" />
    <path
       style="fill:none;stroke:#000000;stroke-width:0.35413387;stroke-miterlimit:4;stroke-opacity:1;stroke-dasharray:none;stroke-dashoffset:2"
       d="m -433.01706,363.29027 77.98346,-63.37637 0,4.91038 z"
       id="path3830"
       inkscape:connector-curvature="0"
       sodipodi:nodetypes="cccc" />
    <g
       id="g3843"
       transform="matrix(0.35413388,0,0,0.35413388,-286.73462,126.33055)">
      <path
         style="fill:none;stroke:#000000;stroke-width:1;stroke-miterlimit:4;stroke-opacity:1;stroke-dasharray:none;stroke-dashoffset:2"
         d="m -186.55934,384.27805 c 0,0 -248.32561,-186.55934 -248.32561,-186.55934 0,0 243.28346,201.68577 243.28346,201.68577 0,0 5.04215,-15.12643 5.04215,-15.12643"
         id="path3845"
         inkscape:connector-curvature="0" />
      <path
         style="fill:none;stroke:#000000;stroke-width:1;stroke-miterlimit:4;stroke-opacity:1;stroke-dasharray:none;stroke-dashoffset:2"
         d="m -188.32409,392.8497 c -3.02529,-1.00843 -230.67811,-156.30648 -230.67811,-156.30648 0,0 227.1486,170.92869 227.1486,170.92869 0,0 3.52951,-14.62221 3.52951,-14.62221"
         id="path3847"
         inkscape:connector-curvature="0" />
      <path
         style="fill:none;stroke:#000000;stroke-width:1;stroke-miterlimit:4;stroke-opacity:1;stroke-dasharray:none;stroke-dashoffset:2"
         d="m -190.08884,401.42134 c -6.05058,-2.01686 -213.0306,-126.05361 -213.0306,-126.05361 0,0 211.01374,140.17161 211.01374,140.17161 0,0 2.01686,-14.118 2.01686,-14.118"
         id="path3849"
         inkscape:connector-curvature="0" />
      <path
         style="fill:none;stroke:#000000;stroke-width:1;stroke-miterlimit:4;stroke-opacity:1;stroke-dasharray:none;stroke-dashoffset:2"
         d="m -191.8536,409.99299 c -9.07585,-3.02529 -180.13456,-87.59 -180.13456,-87.59 l 179.63035,101.20379 0.50421,-13.61379"
         id="path3851"
         inkscape:connector-curvature="0"
         sodipodi:nodetypes="cccc" />
      <path
         style="fill:none;stroke:#000000;stroke-width:1;stroke-miterlimit:4;stroke-opacity:1;stroke-dasharray:none;stroke-dashoffset:2"
         d="m -193.61835,418.56463 c -12.10114,-4.03372 -150.75742,-54.9912 -150.75742,-54.9912 l 151.76586,68.10078 -1.00844,-13.10958"
         id="path3853"
         inkscape:connector-curvature="0"
         sodipodi:nodetypes="cccc" />
      <path
         style="fill:none;stroke:#000000;stroke-width:1;stroke-miterlimit:4;stroke-opacity:1;stroke-dasharray:none;stroke-dashoffset:2"
         d="m -195.3831,427.13628 c -15.12643,-5.04215 -122.55324,-24.73834 -122.55324,-24.73834 l 125.07432,37.3437 -2.52108,-12.60536"
         id="path3855"
         inkscape:connector-curvature="0"
         sodipodi:nodetypes="cccc" />
    </g>
    <g
       id="g3891"
       transform="matrix(0.35413388,0,0,0.35413388,-286.73462,126.33055)">
      <path
         id="path3893"
         d="m -318.91563,458.64968 c 0,0 122.272,-10.08429 122.272,-10.08429 0,0 0,15.12644 0,15.12644 0,0 -122.272,-5.04215 -122.272,-5.04215"
         style="fill:none;stroke:#000000;stroke-width:1;stroke-miterlimit:4;stroke-opacity:1;stroke-dasharray:none;stroke-dashoffset:2"
         inkscape:connector-curvature="0" />
      <path
         id="path3895"
         d="m -334.22782,507.54787 138.34051,-50.66294 0,14.87433 -140.68643,38.13454"
         style="fill:none;stroke:#000000;stroke-width:1;stroke-miterlimit:4;stroke-opacity:1;stroke-dasharray:none;stroke-dashoffset:2"
         inkscape:connector-curvature="0"
         sodipodi:nodetypes="cccc" />
      <path
         id="path3897"
         d="m -361.26964,549.40828 c 0,0 166.13865,-84.20381 166.13865,-84.20381 0,0 0,14.62222 0,14.62222 0,0 -166.13865,69.58159 -166.13865,69.58159"
         style="fill:none;stroke:#000000;stroke-width:1;stroke-miterlimit:4;stroke-opacity:1;stroke-dasharray:none;stroke-dashoffset:2"
         inkscape:connector-curvature="0" />
      <path
         id="path3899"
         d="m -382.44665,594.78758 c 0,0 188.07199,-121.26358 188.07199,-121.26358 0,0 0,14.37012 0,14.37012 0,0 -188.07199,106.89346 -188.07199,106.89346"
         style="fill:none;stroke:#000000;stroke-width:1;stroke-miterlimit:4;stroke-opacity:1;stroke-dasharray:none;stroke-dashoffset:2"
         inkscape:connector-curvature="0" />
      <path
         id="path3901"
         d="m -403.62365,640.16688 c 0,0 210.00531,-158.32334 210.00531,-158.32334 0,0 0,14.11801 0,14.11801 0,0 -210.00531,144.20533 -210.00531,144.20533"
         style="fill:none;stroke:#000000;stroke-width:1;stroke-miterlimit:4;stroke-opacity:1;stroke-dasharray:none;stroke-dashoffset:2"
         inkscape:connector-curvature="0" />
      <path
         id="path3903"
         d="m -416.58991,664.43283 223.72789,-174.26975 0,13.8659 -209.65233,173.30645"
         style="fill:none;stroke:#000000;stroke-width:1;stroke-miterlimit:4;stroke-opacity:1;stroke-dasharray:none;stroke-dashoffset:2"
         inkscape:connector-curvature="0"
         sodipodi:nodetypes="cccc" />
    </g>
    <path
       style="fill:none;stroke:#000000;stroke-width:0.35413387;stroke-miterlimit:4;stroke-opacity:1;stroke-dasharray:none;stroke-dashoffset:2"
       d="m -355.9264,281.61156 -41.58364,-2.41807 42.03004,6.43566 z"
       id="path3928"
       inkscape:connector-curvature="0"
       sodipodi:nodetypes="cccc" />
    <path
       style="opacity:0.54260092;fill:none;stroke:#000000;stroke-width:0.35413387;stroke-miterlimit:4;stroke-opacity:1;stroke-dasharray:none;stroke-dashoffset:2"
       d="m -219.77484,347.23215 c -0.23299,6.26876 -63.78505,35.30604 -65.17419,31.69429"
       id="path3930"
       inkscape:connector-curvature="0"
       sodipodi:nodetypes="cc" />
    <path
       style="opacity:0.54260092;fill:none;stroke:#000000;stroke-width:0.35413387;stroke-miterlimit:4;stroke-opacity:1;stroke-dasharray:none;stroke-dashoffset:2"
       d="m -226.88809,342.99864 c -18.75845,12.94348 -37.5169,21.36193 -56.27534,31.01742"
       id="path3932"
       inkscape:connector-curvature="0"
       sodipodi:nodetypes="cc" />
    <path
       style="opacity:0.54260092;fill:none;stroke:#000000;stroke-width:0.35413387;stroke-miterlimit:4;stroke-opacity:1;stroke-dasharray:none;stroke-dashoffset:2"
       d="m -235.39879,337.85778 c -10.44692,8.80444 -23.86981,17.8378 -41.96146,27.23031"
       id="path3934"
       inkscape:connector-curvature="0"
       sodipodi:nodetypes="cc" />
    <path
       style="opacity:0.54260092;fill:none;stroke:#000000;stroke-width:0.35413387;stroke-miterlimit:4;stroke-opacity:1;stroke-dasharray:none;stroke-dashoffset:2"
       d="m -240.30918,335.17939 c -9.51539,6.21221 -16.00781,11.41676 -35.49111,20.9516"
       id="path3936"
       inkscape:connector-curvature="0"
       sodipodi:nodetypes="cc" />
    <path
       style="opacity:0.54260092;fill:none;stroke:#000000;stroke-width:0.35413387;stroke-miterlimit:4;stroke-opacity:1;stroke-dasharray:none;stroke-dashoffset:2"
       d="m -245.21956,332.05459 c -9.29258,5.94154 -18.63136,11.85535 -30.8015,16.07035"
       id="path3938"
       inkscape:connector-curvature="0"
       sodipodi:nodetypes="cc" />
    <path
       style="opacity:0.54260092;fill:none;stroke:#000000;stroke-width:0.35413387;stroke-miterlimit:4;stroke-opacity:1;stroke-dasharray:none;stroke-dashoffset:2"
       d="m -249.23715,329.8226 c -9.69067,5.74791 -19.02045,9.69135 -28.1231,12.49916"
       id="path3940"
       inkscape:connector-curvature="0"
       sodipodi:nodetypes="cc" />
    <path
       style="opacity:0.54260092;fill:none;stroke:#000000;stroke-width:0.35413387;stroke-miterlimit:4;stroke-opacity:1;stroke-dasharray:none;stroke-dashoffset:2"
       d="m -254.14753,327.14421 c -9.09652,3.54156 -17.91123,7.50584 -28.12311,9.37437"
       id="path3942"
       inkscape:connector-curvature="0"
       sodipodi:nodetypes="cc" />
    <path
       style="opacity:0.54260092;fill:none;stroke:#000000;stroke-width:0.35413387;stroke-miterlimit:4;stroke-opacity:1;stroke-dasharray:none;stroke-dashoffset:2"
       d="m -259.95071,323.57302 c -7.08178,3.21479 -14.814,5.99595 -23.65912,8.03518"
       id="path3944"
       inkscape:connector-curvature="0"
       sodipodi:nodetypes="cc" />
    <path
       style="opacity:0.54260092;fill:none;stroke:#000000;stroke-width:0.35413387;stroke-miterlimit:4;stroke-opacity:1;stroke-dasharray:none;stroke-dashoffset:2"
       d="m -266.64669,319.55544 c -6.68759,3.57957 -14.31271,6.22161 -22.76632,8.03517"
       id="path3946"
       inkscape:connector-curvature="0"
       sodipodi:nodetypes="cc" />
    <path
       style="opacity:0.54260092;fill:none;stroke:#000000;stroke-width:0.35413387;stroke-miterlimit:4;stroke-opacity:1;stroke-dasharray:none;stroke-dashoffset:2"
       d="m -272.00347,315.98425 c -6.41967,3.14597 -12.95526,6.00213 -20.53433,6.24958"
       id="path3948"
       inkscape:connector-curvature="0"
       sodipodi:nodetypes="cc" />
    <path
       style="opacity:0.54260092;fill:none;stroke:#000000;stroke-width:0.35413387;stroke-miterlimit:4;stroke-opacity:1;stroke-dasharray:none;stroke-dashoffset:2"
       d="m -277.80665,312.85946 c -4.79648,2.88414 -10.8725,5.12852 -19.19514,6.24958"
       id="path3950"
       inkscape:connector-curvature="0"
       sodipodi:nodetypes="cc" />
    <path
       style="opacity:0.54260092;fill:none;stroke:#000000;stroke-width:0.35413387;stroke-miterlimit:4;stroke-opacity:1;stroke-dasharray:none;stroke-dashoffset:2"
       d="m -282.27064,309.28827 c -5.30444,2.59664 -10.45827,5.24348 -19.19513,6.69598"
       id="path3952"
       inkscape:connector-curvature="0"
       sodipodi:nodetypes="cc" />
    <path
       style="opacity:0.54260092;fill:none;stroke:#000000;stroke-width:0.35413387;stroke-miterlimit:4;stroke-opacity:1;stroke-dasharray:none;stroke-dashoffset:2"
       d="m -288.07382,307.05628 c -6.54718,2.44951 -13.09436,4.88861 -19.64153,4.46398"
       id="path3954"
       inkscape:connector-curvature="0"
       sodipodi:nodetypes="cc" />
    <path
       style="opacity:0.54260092;fill:none;stroke:#000000;stroke-width:0.35413387;stroke-miterlimit:4;stroke-opacity:1;stroke-dasharray:none;stroke-dashoffset:2"
       d="m -293.4306,303.48509 c -6.60935,3.1192 -12.86604,5.00406 -18.30234,4.01759"
       id="path3956"
       inkscape:connector-curvature="0"
       sodipodi:nodetypes="cc" />
    <path
       style="opacity:0.54260092;fill:none;stroke:#000000;stroke-width:0.35413387;stroke-miterlimit:4;stroke-opacity:1;stroke-dasharray:none;stroke-dashoffset:2"
       d="m -298.78738,301.2531 c -4.91696,3.0919 -10.60929,2.30699 -16.07035,2.67839"
       id="path3958"
       inkscape:connector-curvature="0"
       sodipodi:nodetypes="cc" />
    <path
       style="opacity:0.66816143;fill:#6f8a91;stroke:#000000;stroke-width:0.35413387;stroke-miterlimit:4;stroke-opacity:1;stroke-dasharray:none;stroke-dashoffset:2"
       d="m -316.53885,299.42969 c 7.98905,13.58904 13.75173,15.30403 20.09026,20.09026 14.45506,10.03985 19.22065,19.02437 21.41489,27.37574 -3.31296,11.35543 -16.30549,32.85136 -8.61011,32.67426 19.81894,-3.44976 41.41035,-13.48293 65.34853,-32.23272 -7.69937,-4.83854 -6.22857,-3.56365 -26.49265,-16.77867 -13.73632,-8.01754 -23.3959,-13.7055 -33.11581,-19.42795 -10.99076,-4.26826 -17.99743,-8.53652 -25.60956,-12.80478 -0.56457,0.71134 -6.02688,0.97744 -13.02555,1.10386 z"
       id="path3960"
       inkscape:connector-curvature="0"
       sodipodi:nodetypes="ccccccccc" />
    <path
       style="opacity:0.54260092;fill:none;stroke:#000000;stroke-width:0.35413387;stroke-miterlimit:4;stroke-opacity:1;stroke-dasharray:none;stroke-dashoffset:2"
       d="m -193.78958,349.32418 c 3.53235,0.88309 41.06361,-2.42849 41.06361,-2.42849"
       id="path3962"
       inkscape:connector-curvature="0" />
    <path
       style="opacity:0.54260092;fill:none;stroke:#000000;stroke-width:0.35413387;stroke-miterlimit:4;stroke-opacity:1;stroke-dasharray:none;stroke-dashoffset:2"
       d="m -196.65962,350.86959 47.02445,-2.64927"
       id="path3964"
       inkscape:connector-curvature="0" />
    <path
       style="opacity:0.54260092;fill:none;stroke:#000000;stroke-width:0.35413387;stroke-miterlimit:4;stroke-opacity:1;stroke-dasharray:none;stroke-dashoffset:2"
       d="m -198.86734,353.29808 51.66067,-4.63621"
       id="path3966"
       inkscape:connector-curvature="0" />
    <path
       style="opacity:0.54260092;fill:none;stroke:#000000;stroke-width:0.35413387;stroke-miterlimit:4;stroke-opacity:1;stroke-dasharray:none;stroke-dashoffset:2"
       d="m -201.29583,355.06426 55.19302,-5.51931"
       id="path3968"
       inkscape:connector-curvature="0" />
    <path
       style="opacity:0.54260092;fill:none;stroke:#000000;stroke-width:0.35413387;stroke-miterlimit:4;stroke-opacity:1;stroke-dasharray:none;stroke-dashoffset:2"
       d="m -201.73738,356.38889 57.62152,-6.18162"
       id="path3970"
       inkscape:connector-curvature="0" />
    <path
       style="opacity:0.54260092;fill:none;stroke:#000000;stroke-width:0.35413387;stroke-miterlimit:4;stroke-opacity:1;stroke-dasharray:none;stroke-dashoffset:2"
       d="m -196.43885,358.15507 54.97225,-6.84394"
       id="path3972"
       inkscape:connector-curvature="0" />
    <path
       style="opacity:0.54260092;fill:none;stroke:#000000;stroke-width:0.35413387;stroke-miterlimit:4;stroke-opacity:1;stroke-dasharray:none;stroke-dashoffset:2"
       d="m -118.06476,333.20782 44.375189,5.07776 9.71397,-2.20772"
       id="path3976"
       inkscape:connector-curvature="0" />
    <path
       style="opacity:0.54260092;fill:none;stroke:#000000;stroke-width:0.35413387;stroke-miterlimit:4;stroke-opacity:1;stroke-dasharray:none;stroke-dashoffset:2"
       d="m -268.35481,227.15095 c 3.76348,-5.92633 99.7177,-7.77145 100.40318,-5.48652"
       id="path3982"
       inkscape:connector-curvature="0"
       sodipodi:nodetypes="cc" />
    <path
       style="opacity:0.54260092;fill:none;stroke:#000000;stroke-width:0.35413387;stroke-miterlimit:4;stroke-opacity:1;stroke-dasharray:none;stroke-dashoffset:2"
       d="m -259.57639,230.71718 c 27.88978,-4.82451 55.77955,-4.55184 83.66932,-4.38921"
       id="path3984"
       inkscape:connector-curvature="0"
       sodipodi:nodetypes="cc" />
    <path
       style="opacity:0.54260092;fill:none;stroke:#000000;stroke-width:0.35413387;stroke-miterlimit:4;stroke-opacity:1;stroke-dasharray:none;stroke-dashoffset:2"
       d="m -243.11685,235.65504 c 12.92343,-4.69474 32.19538,-3.82487 48.00699,-2.74326"
       id="path3986"
       inkscape:connector-curvature="0"
       sodipodi:nodetypes="cc" />
    <path
       style="opacity:0.54260092;fill:none;stroke:#000000;stroke-width:0.35413387;stroke-miterlimit:4;stroke-opacity:1;stroke-dasharray:none;stroke-dashoffset:2"
       d="m -232.69247,239.4956 c 6.58381,-0.92762 13.16763,-2.11638 19.75144,-1.64595"
       id="path3988"
       inkscape:connector-curvature="0"
       sodipodi:nodetypes="cc" />
    <path
       style="opacity:0.66816143;fill:#6f8a91;stroke:#000000;stroke-width:0.35413387;stroke-miterlimit:4;stroke-opacity:1;stroke-dasharray:none;stroke-dashoffset:2"
       d="m -161.09348,220.56713 c -36.6718,-1.44164 -79.11149,-10.7003 -107.80998,4.93786 -0.39514,1.3413 1.44725,7.23992 49.10429,15.63656 l 26.60959,-7.40679 z"
       id="path3990"
       inkscape:connector-curvature="0"
       sodipodi:nodetypes="ccccc" />
    <path
       style="opacity:0.66816143;fill:#6f8a91;stroke:#000000;stroke-width:0.35413387;stroke-miterlimit:4;stroke-opacity:1;stroke-dasharray:none;stroke-dashoffset:2"
       d="m -345.71946,256.8375 c -46.66143,-24.88672 -70.44707,-46.13792 -96.78499,-61.06177 l -1.27213,8.3222 c 16.04372,24.80931 29.73772,46.09403 43.64153,67.69347 0.55384,7.64746 1.10769,15.75338 1.66154,24.50778 0,0 -31.98474,43.20017 -31.98474,44.86172 0,1.66154 -6.64617,19.93853 -6.64617,19.93853 0,0 3.7133,5.00381 4.98463,6.64618 2.3888,3.08597 80.18838,-57.09304 84.3234,-60.64638 z"
       id="path3992"
       inkscape:connector-curvature="0"
       sodipodi:nodetypes="cccccscscc" />
    <path
       style="fill:#999999;stroke:#000000;stroke-width:0.36942667;stroke-miterlimit:4;stroke-opacity:1;stroke-dasharray:none;stroke-dashoffset:2"
       d="m -44.97986,349.884 c -0.830773,-2.26018 -13.292358,-18.98553 -13.292358,-18.98553 l 4.984636,-22.60184 16.20006,-17.62942 11.630815,-6.32852 14.538517,9.49277 c 0,0 11.21542651,6.78055 11.21542651,9.04074 0,2.26018 28.42967649,17.35946 28.42967649,17.35946 1.227899,1.68796 -9.246514,13.43391 -9.573613,13.62129 -0.166156,0.0952 13.537589,-12.30636 10.990977,-8.62471 2.248874,0.18368 -4.297213,11.68681 -7.000802,11.5467 l -8.307722,1.35611 -33.646284,9.94481 z"
       id="path3996"
       inkscape:connector-curvature="0"
       sodipodi:nodetypes="ccccccscsccccc" />
    <path
       style="fill:#ececec;stroke:#000000;stroke-width:0.35413387;stroke-miterlimit:4;stroke-opacity:1;stroke-dasharray:none;stroke-dashoffset:2"
       d="m -355.68873,262.1838 8.30772,-8.30772 12.87697,3.73847 c 13.56929,0.40877 27.13857,0.20018 40.70785,-3.32309 21.49008,-2.82361 41.10771,-8.1438 60.231,-14.12313 l 71.38244,-19.99169 36.61797,4.6224 c 20.67372,3.53747 36.898254,10.18039 58.366671,17.69132 20.957575,11.22964 39.739508,25.72275 57.5260767,41.70891 L -44.149086,310.3686 c 0,0 -0.415389,14.9539 -0.415389,24.0924 0,9.13849 0,14.9539 0,14.9539 l -38.215528,4.15386 c 0,0.94254 -53.584817,2.25321 -56.077137,0.41539 -2.03359,-1.49956 -19.52315,-7.89234 -19.52315,-7.89234 l -34.47705,2.9077 -26.16933,-0.83077 -55.24637,-32.40012 -31.98473,-18.27699 -14.53852,-0.83078 c -11.59765,2.48258 -20.17836,7.22786 -28.66165,12.0462 l -6.64618,-6.23079 -3.73847,-24.92317 z"
       id="path3994"
       inkscape:connector-curvature="0"
       sodipodi:nodetypes="ccccccccccsccscccccccccc" />
    <path
       style="fill:#535d6c;stroke:#000000;stroke-width:0.35413387;stroke-miterlimit:4;stroke-opacity:1;stroke-dasharray:none;stroke-dashoffset:2"
       d="m -27.932726,268.2379 c 0.283155,3.11468 1.982073,32.27945 1.982073,32.27945 l 15.00711,-5.94621 3.3978403,12.45873 5.6630611,5.37991 16.8137626,2.85918 c -0.07598,0.3799 5.873296,3.60411 6.971094,3.89645 2.338023,0.62261 6.640881,4.23372 7.071196,4.59814 0.876609,-1.66701 1.334869,-0.82393 2.839159,-6.25702 L 23.601133,308.72879 4.9130316,294.00483 -18.022367,276.16619 z"
       id="path3998"
       inkscape:connector-curvature="0"
       sodipodi:nodetypes="ccccccscccccc" />
    <path
       style="opacity:0.93721972;fill:#e8c07f;fill-opacity:1;stroke:#000000;stroke-width:0.35413387;stroke-miterlimit:4;stroke-opacity:1;stroke-dasharray:none;stroke-dashoffset:2"
       d="m -6.9279162,323.19534 c 2.5643684,-8.15359 8.6002687,-11.44703 14.5008686,-14.92989 -4.1004949,1.08996 -8.6117249,0.81081 -12.0983571,3.94698 -2.7862509,2.89735 -2.4999478,6.97645 -2.4025115,10.98291 z"
       id="path4000"
       inkscape:connector-curvature="0"
       sodipodi:nodetypes="cccc" />
    <path
       style="fill:#413421;fill-opacity:1;stroke:#000000;stroke-width:0.35413387;stroke-miterlimit:4;stroke-opacity:1;stroke-dasharray:none;stroke-dashoffset:2"
       d="m -0.14940422,317.70388 c 0.88247683,-2.0144 1.55935062,-4.16587 3.60376552,-5.40565 1.847095,-1.67986 4.1879164,-2.4957 6.9501217,-2.57411 1.745717,1.70203 3.075153,3.3 3.00314,4.54761 0.266968,-2.59565 -0.811299,5.85694 -2.83153,7.63655 -0.05284,-2.30921 0.952715,-5.11234 -2.3167087,-5.92047 -3.2463913,-1.64528 -5.833527,0.006 -8.40878852,1.71607 z"
       id="path4002"
       inkscape:connector-curvature="0"
       sodipodi:nodetypes="ccccccc" />
    <path
       style="opacity:0.93721972;fill:#e8bf7f;fill-opacity:1;stroke:#000000;stroke-width:0.35413387;stroke-miterlimit:4;stroke-opacity:1;stroke-dasharray:none;stroke-dashoffset:2"
       d="m 2.1673042,324.99722 c -1.4274393,1.79403 -3.6061524,-4.39721 -2.48831815,-6.5211 0.74512955,-2.01541 5.77304085,-3.37698 7.89396635,-2.57412 3.2042496,1.21294 4.3168676,5.10113 3.0031406,6.09208 -2.0530207,1.95117 -3.7953593,4.21301 -8.4945919,3.51797 z"
       id="path4004"
       inkscape:connector-curvature="0"
       sodipodi:nodetypes="ccsccc" />
    <path
       style="opacity:0.93721971999999998;fill:#373e48;fill-opacity:1;stroke:#000000;stroke-width:0.35413387000000002;stroke-miterlimit:4;stroke-opacity:1;stroke-dasharray:none;stroke-dashoffset:2"
       d="m 2.5105201,323.71016 c -2.1543805,-2.65249 -0.4303187,-3.81328 0.1716062,-5.40565 1.977048,-1.34055 3.7385418,-1.17224 5.4914549,-0.94384 1.764132,2.41439 0.527578,3.67467 -0.6006288,4.97663 -1.5142871,1.09265 -2.8938439,2.67932 -5.0624323,1.37286 z"
       id="path4006"
       inkscape:connector-curvature="0"
       sodipodi:nodetypes="ccccc" />
    <path
       style="opacity:0.93721972;fill:none;stroke:#000000;stroke-width:0.35413387;stroke-miterlimit:4;stroke-opacity:1;stroke-dasharray:none;stroke-dashoffset:2"
       d="m 30.459208,321.04739 c -0.302512,1.57561 -1.129683,5.47315 -0.497558,5.47315 -3.135161,3.32421 -5.640595,4.75923 -8.375578,6.8829 l -0.580485,-0.91219 c 3.785503,-2.54603 6.994424,-6.24522 9.453621,-11.44386 z"
       id="path4008"
       inkscape:connector-curvature="0"
       sodipodi:nodetypes="ccccc" />
    <path
       style="opacity:0.66816143;fill:#6f8a91;stroke:#000000;stroke-width:0.35413387;stroke-miterlimit:4;stroke-opacity:1;stroke-dasharray:none;stroke-dashoffset:2"
       d="m -147.64822,338.50635 41.06361,6.40239 43.712869,-0.44154 8.830885,-7.50625 -13.467099,-7.06471 -15.233271,4.63621 -30.908094,-1.5454 -34.21967,2.42849 z"
       id="path3974"
       inkscape:connector-curvature="0" />
    <path
       style="opacity:0.54260092;fill:none;stroke:#000000;stroke-width:0.35413387;stroke-miterlimit:4;stroke-opacity:1;stroke-dasharray:none;stroke-dashoffset:2"
       d="m -106.58461,332.98705 20.531801,2.64926 22.077208,-0.22077 0.220771,0"
       id="path3978"
       inkscape:connector-curvature="0" />
    <path
       style="opacity:0.54260092;fill:none;stroke:#000000;stroke-width:0.35413387;stroke-miterlimit:4;stroke-opacity:1;stroke-dasharray:none;stroke-dashoffset:2"
       d="m -79.87119,333.64937 15.674819,0.66231"
       id="path3980"
       inkscape:connector-curvature="0" />
    <path
       style="opacity:0.95067264;fill:#e9e2e3;fill-opacity:1;fill-rule:evenodd;stroke:#000000;stroke-width:0;stroke-miterlimit:4;stroke-opacity:1;stroke-dasharray:none;stroke-dashoffset:2"
       d="m -155.48693,557.80133 c 0,0 13.11335,-59.94677 3.74667,-71.18679 -9.36668,-11.24002 1.87334,-63.69344 1.87334,-63.69344 0,0 140.5002372,24.35338 181.713641,24.35338 41.213404,0 252.900439,-7.49335 252.900439,-7.49335 0,0 93.66682,-3.74667 93.66682,3.74667 0,7.49335 7.49335,80.55348 -5.62001,99.28684 -13.11335,18.73337 -48.70675,29.97339 -58.07343,58.07343 -9.36668,28.10005 -44.96008,95.54017 -44.96008,95.54017"
       id="path4010"
       inkscape:connector-curvature="0"
       clip-path="url(#clipPath4018)"
       transform="matrix(0.35413388,0,0,0.35413388,-286.73462,126.33055)" />
    <path
       style="opacity:0.95067264;fill:#e9e2e3;fill-opacity:1;fill-rule:evenodd;stroke:#000000;stroke-width:0.35413387;stroke-miterlimit:4;stroke-opacity:1;stroke-dasharray:none;stroke-dashoffset:2"
       d="m -219.85292,326.79729 c 7.83819,-24.58239 11.95627,-51.02483 27.63375,-71.68757"
       id="path4022"
       inkscape:connector-curvature="0"
       sodipodi:nodetypes="cc" />
    <path
       sodipodi:nodetypes="cc"
       inkscape:connector-curvature="0"
       id="path4024"
       d="m -166.18737,326.79729 c 7.83819,-24.58239 11.95628,-51.02483 27.63375,-71.68757"
       style="opacity:0.95067264;fill:#e9e2e3;fill-opacity:1;fill-rule:evenodd;stroke:#000000;stroke-width:0.35413387;stroke-miterlimit:4;stroke-opacity:1;stroke-dasharray:none;stroke-dashoffset:2" />
    <path
       sodipodi:nodetypes="cc"
       inkscape:connector-curvature="0"
       id="path4199"
       d="m -221.05439,263.1195 c 2.46521,39.93331 13.20954,46.75016 21.62641,62.87681"
       style="opacity:0.95067264;fill:none;stroke:#000000;stroke-width:0.35413387;stroke-miterlimit:4;stroke-opacity:1;stroke-dasharray:none;stroke-dashoffset:2" />
    <path
       style="opacity:0.95067264;fill:none;stroke:#000000;stroke-width:0.35413387;stroke-miterlimit:4;stroke-opacity:1;stroke-dasharray:none;stroke-dashoffset:2"
       d="m -221.05439,263.1195 c 2.46521,39.93331 13.20954,46.75016 21.62641,62.87681"
       id="path4201"
       inkscape:connector-curvature="0"
       sodipodi:nodetypes="cc" />
    <path
       sodipodi:nodetypes="cc"
       inkscape:connector-curvature="0"
       id="path4203"
       d="m -173.79667,263.1195 c 2.46522,39.93331 13.20954,46.75016 21.62642,62.87681"
       style="opacity:0.95067264;fill:none;stroke:#000000;stroke-width:0.35413387;stroke-miterlimit:4;stroke-opacity:1;stroke-dasharray:none;stroke-dashoffset:2" />
    <g
       id="g4403"
       clip-path="url(#clipPath4430)"
       transform="matrix(0.35413388,0,0,0.35413388,-286.73462,126.33055)">
      <g
         id="g4097">
        <path
           id="path4099"
           d="m 188.85993,566.07614 c 22.13342,-69.41551 33.76203,-144.08343 78.03194,-202.4307"
           style="opacity:0.95067264;fill:#e9e2e3;fill-opacity:1;fill-rule:evenodd;stroke:#000000;stroke-width:1;stroke-miterlimit:4;stroke-opacity:1;stroke-dasharray:none;stroke-dashoffset:2"
           inkscape:connector-curvature="0" />
        <path
           id="path4101"
           d="m 205.69774,566.07614 c 22.13342,-69.41551 33.76203,-144.08343 78.03194,-202.4307"
           style="opacity:0.95067264;fill:#e9e2e3;fill-opacity:1;fill-rule:evenodd;stroke:#000000;stroke-width:1;stroke-miterlimit:4;stroke-opacity:1;stroke-dasharray:none;stroke-dashoffset:2"
           inkscape:connector-curvature="0" />
        <path
           id="path4103"
           d="m 222.53555,566.07614 c 22.13342,-69.41551 33.76203,-144.08343 78.03194,-202.4307"
           style="opacity:0.95067264;fill:#e9e2e3;fill-opacity:1;fill-rule:evenodd;stroke:#000000;stroke-width:1;stroke-miterlimit:4;stroke-opacity:1;stroke-dasharray:none;stroke-dashoffset:2"
           inkscape:connector-curvature="0" />
        <path
           id="path4105"
           d="m 239.37336,566.07614 c 22.13342,-69.41551 33.76203,-144.08343 78.03194,-202.4307"
           style="opacity:0.95067264;fill:#e9e2e3;fill-opacity:1;fill-rule:evenodd;stroke:#000000;stroke-width:1;stroke-miterlimit:4;stroke-opacity:1;stroke-dasharray:none;stroke-dashoffset:2"
           inkscape:connector-curvature="0" />
        <path
           id="path4107"
           d="m 256.21117,566.07614 c 22.13342,-69.41551 33.76203,-144.08343 78.03194,-202.4307"
           style="opacity:0.95067264;fill:#e9e2e3;fill-opacity:1;fill-rule:evenodd;stroke:#000000;stroke-width:1;stroke-miterlimit:4;stroke-opacity:1;stroke-dasharray:none;stroke-dashoffset:2"
           inkscape:connector-curvature="0" />
        <path
           id="path4109"
           d="m 273.04899,566.07614 c 22.13342,-69.41551 33.76203,-144.08343 78.03194,-202.4307"
           style="opacity:0.95067264;fill:#e9e2e3;fill-opacity:1;fill-rule:evenodd;stroke:#000000;stroke-width:1;stroke-miterlimit:4;stroke-opacity:1;stroke-dasharray:none;stroke-dashoffset:2"
           inkscape:connector-curvature="0" />
        <path
           id="path4111"
           d="m 289.8868,566.07614 c 22.13342,-69.41551 33.76203,-144.08343 78.03194,-202.4307"
           style="opacity:0.95067264;fill:#e9e2e3;fill-opacity:1;fill-rule:evenodd;stroke:#000000;stroke-width:1;stroke-miterlimit:4;stroke-opacity:1;stroke-dasharray:none;stroke-dashoffset:2"
           inkscape:connector-curvature="0" />
        <path
           id="path4113"
           d="m 306.72461,566.07614 c 22.13342,-69.41551 33.76203,-144.08343 78.03194,-202.4307"
           style="opacity:0.95067264;fill:#e9e2e3;fill-opacity:1;fill-rule:evenodd;stroke:#000000;stroke-width:1;stroke-miterlimit:4;stroke-opacity:1;stroke-dasharray:none;stroke-dashoffset:2"
           inkscape:connector-curvature="0" />
        <path
           id="path4115"
           d="m 323.56242,566.07614 c 22.13342,-69.41551 33.76203,-144.08343 78.03194,-202.4307"
           style="opacity:0.95067264;fill:#e9e2e3;fill-opacity:1;fill-rule:evenodd;stroke:#000000;stroke-width:1;stroke-miterlimit:4;stroke-opacity:1;stroke-dasharray:none;stroke-dashoffset:2"
           inkscape:connector-curvature="0" />
        <path
           id="path4117"
           d="m 340.40023,566.07614 c 22.13342,-69.41551 33.76203,-144.08343 78.03194,-202.4307"
           style="opacity:0.95067264;fill:#e9e2e3;fill-opacity:1;fill-rule:evenodd;stroke:#000000;stroke-width:1;stroke-miterlimit:4;stroke-opacity:1;stroke-dasharray:none;stroke-dashoffset:2"
           inkscape:connector-curvature="0" />
      </g>
      <g
         id="g4290">
        <path
           style="opacity:0.95067264;fill:none;stroke:#000000;stroke-width:1;stroke-miterlimit:4;stroke-opacity:1;stroke-dasharray:none;stroke-dashoffset:2"
           d="m 185.46723,386.2634 c 6.96125,112.7633 37.30098,132.01267 61.06848,177.55095"
           id="path4292"
           inkscape:connector-curvature="0" />
        <path
           style="opacity:0.95067264;fill:none;stroke:#000000;stroke-width:1;stroke-miterlimit:4;stroke-opacity:1;stroke-dasharray:none;stroke-dashoffset:2"
           d="m 202.14797,386.2634 c 6.96125,112.7633 37.30098,132.01267 61.06848,177.55095"
           id="path4294"
           inkscape:connector-curvature="0" />
        <path
           style="opacity:0.95067264;fill:none;stroke:#000000;stroke-width:1;stroke-miterlimit:4;stroke-opacity:1;stroke-dasharray:none;stroke-dashoffset:2"
           d="m 218.82871,386.2634 c 6.96125,112.7633 37.30099,132.01267 61.06848,177.55095"
           id="path4296"
           inkscape:connector-curvature="0" />
        <path
           style="opacity:0.95067264;fill:none;stroke:#000000;stroke-width:1;stroke-miterlimit:4;stroke-opacity:1;stroke-dasharray:none;stroke-dashoffset:2"
           d="m 235.50946,386.2634 c 6.96125,112.7633 37.30098,132.01267 61.06848,177.55095"
           id="path4298"
           inkscape:connector-curvature="0" />
        <path
           style="opacity:0.95067264;fill:none;stroke:#000000;stroke-width:1;stroke-miterlimit:4;stroke-opacity:1;stroke-dasharray:none;stroke-dashoffset:2"
           d="m 252.1902,386.2634 c 6.96125,112.7633 37.30098,132.01267 61.06848,177.55095"
           id="path4300"
           inkscape:connector-curvature="0" />
        <path
           style="opacity:0.95067264;fill:none;stroke:#000000;stroke-width:1;stroke-miterlimit:4;stroke-opacity:1;stroke-dasharray:none;stroke-dashoffset:2"
           d="m 268.87094,386.2634 c 6.96125,112.7633 37.30098,132.01267 61.06848,177.55095"
           id="path4302"
           inkscape:connector-curvature="0" />
        <path
           style="opacity:0.95067264;fill:none;stroke:#000000;stroke-width:1;stroke-miterlimit:4;stroke-opacity:1;stroke-dasharray:none;stroke-dashoffset:2"
           d="m 285.55169,386.2634 c 6.96125,112.7633 37.30097,132.01267 61.06847,177.55095"
           id="path4304"
           inkscape:connector-curvature="0" />
        <path
           style="opacity:0.95067264;fill:none;stroke:#000000;stroke-width:1;stroke-miterlimit:4;stroke-opacity:1;stroke-dasharray:none;stroke-dashoffset:2"
           d="m 302.23243,386.2634 c 6.96125,112.7633 37.30098,132.01267 61.06848,177.55095"
           id="path4306"
           inkscape:connector-curvature="0" />
        <path
           style="opacity:0.95067264;fill:none;stroke:#000000;stroke-width:1;stroke-miterlimit:4;stroke-opacity:1;stroke-dasharray:none;stroke-dashoffset:2"
           d="m 318.91317,386.2634 c 6.96125,112.7633 37.30098,132.01267 61.06848,177.55095"
           id="path4308"
           inkscape:connector-curvature="0" />
      </g>
    </g>
    <path
       style="opacity:0.95067264;fill:none;stroke:#000000;stroke-width:0;stroke-miterlimit:4;stroke-opacity:1;stroke-dasharray:none;stroke-dashoffset:2"
       d="m -215.44754,292.7557 6.80831,-23.22837 24.42985,-7.20881 c 0,0 19.62397,11.2137 20.02446,13.21615 0.40048,2.00245 2.80342,34.44207 2.80342,34.44207 l -19.22348,14.01712 -27.63376,-9.61174 z"
       id="path4426"
       inkscape:connector-curvature="0" />
  </g>
</svg>
